PathFileType	4	(X/Y/Z)	s09c0301.trc
DataRate	CameraRate	NumFrames	NumMarkers	Units	OrigDataRate	OrigDataStartFrame	OrigNumFrames
200	200	5	50	mm	200	1000	2000
Frame#	Time	racr			lacr			c7			jug			rlel			rdr			llel			ldr			s2			lic			ric			lasi			rasi			rpsi			lpsi			rgt			lgt			rth1			rth2			rth3			rth4			rlfc			rmfc			rsh1			rsh2			rsh3			rsh4			rlmal			rmmal			rcal			rtoe			rmt5			lth1			lth2			lth4			lth3			llfc			lmfc			llmal			lmmal			lcal			lmt5			lsh1			lsh2			lsh3			lsh4			ltoe			SBIKE			LBIKE			RBIKE			
		X1	Y1	Z1	X2	Y2	Z2	X3	Y3	Z3	X4	Y4	Z4	X5	Y5	Z5	X6	Y6	Z6	X7	Y7	Z7	X8	Y8	Z8	X9	Y9	Z9	X10	Y10	Z10	X11	Y11	Z11	X12	Y12	Z12	X13	Y13	Z13	X14	Y14	Z14	X15	Y15	Z15	X16	Y16	Z16	X17	Y17	Z17	X18	Y18	Z18	X19	Y19	Z19	X20	Y20	Z20	X21	Y21	Z21	X22	Y22	Z22	X23	Y23	Z23	X24	Y24	Z24	X25	Y25	Z25	X26	Y26	Z26	X27	Y27	Z27	X28	Y28	Z28	X29	Y29	Z29	X30	Y30	Z30	X31	Y31	Z31	X32	Y32	Z32	X33	Y33	Z33	X34	Y34	Z34	X35	Y35	Z35	X36	Y36	Z36	X37	Y37	Z37	X38	Y38	Z38	X39	Y39	Z39	X40	Y40	Z40	X41	Y41	Z41	X42	Y42	Z42	X43	Y43	Z43	X44	Y44	Z44	X45	Y45	Z45	X46	Y46	Z46	X47	Y47	Z47	X48	Y48	Z48	X49	Y49	Z49	X50	Y50	Z50	
1000	5.0000	707.183760	1362.502736	-100.043922	717.401010	1296.722336	-444.415847	705.776451	1390.782607	-277.012127	700.655305	1253.307782	-252.913019	633.288445	1110.422669	-38.667317	723.971080	871.425170	-60.892548	558.280591	1069.411966	-510.218504	707.418685	884.181264	-443.539514	228.843852	1186.620450	-222.826158	356.279419	1132.611089	-372.853209	377.333208	1181.153569	-85.568455	388.116131	1072.691051	-340.641710	399.198437	1117.204886	-102.412321	264.452775	1225.034305	-169.616774	260.713421	1206.752333	-279.155745	336.790773	1060.003392	-15.918771	284.205356	1007.829736	-384.492725	423.094125	951.438382	-20.040086	493.804483	900.723817	-32.716054	525.795422	818.134689	-35.234082	513.040777	916.324196	-60.366920	544.620218	716.159959	-66.398679	524.274323	707.983385	-165.224648	442.890464	681.824287	-42.922793	375.809089	625.766837	-64.224333	289.628282	610.804142	-67.856696	390.752398	605.777332	-94.431955	197.667901	570.047242	-74.288484	212.565749	578.682676	-150.186721	123.132642	607.075423	-114.882039	283.839003	397.680491	-129.394757	220.853855	449.166713	-61.148281	329.510239	879.155401	-387.208923	378.804998	810.105488	-382.577204	414.060936	821.536305	-373.537673	386.954007	720.132356	-376.733195	408.744921	627.467873	-362.345762	408.185008	607.474047	-268.055729	299.419047	278.075949	-403.418713	318.421262	278.870451	-331.706910	229.981827	248.469106	-372.091625	390.223980	179.886186	-432.555512	371.880954	535.387389	-395.137313	372.032696	448.939909	-394.263399	328.186776	372.007184	-401.053886	395.830900	442.177821	-362.507216	482.849893	183.404921	-362.738084	-64.568802	852.720067	-240.591233	21.165371	83.798125	-442.082536	21.199102	83.854492	-43.846611	
1001	5.0050	705.225164	1363.133191	-98.820803	720.098244	1297.350185	-443.155642	705.863333	1391.629751	-275.500085	701.190300	1254.103725	-251.594911	630.118744	1110.533570	-39.090504	724.030625	872.145420	-61.468898	562.370356	1070.192195	-511.649061	708.121621	883.568978	-444.179415	228.528147	1185.909963	-228.315291	359.408273	1129.800937	-375.039939	376.070499	1183.370629	-88.436487	390.560342	1070.490988	-341.257538	398.507413	1119.375815	-104.090765	262.723747	1225.272645	-175.174183	261.611182	1205.111939	-284.182234	336.087762	1063.849944	-18.572828	285.830942	1005.517779	-385.313543	425.056609	957.311466	-21.658905	496.881235	908.001648	-33.703495	530.282245	825.726469	-35.608386	515.496098	923.284687	-61.673257	551.552227	723.437381	-66.475064	531.269695	714.657305	-166.000059	449.952485	688.678512	-43.102991	382.921578	632.616553	-64.372679	296.672433	617.661602	-67.923901	397.798031	612.663784	-94.611854	204.681685	576.214321	-74.389541	219.165605	584.323659	-149.936989	129.532324	612.526231	-114.852984	294.068010	405.999648	-129.477593	229.712526	455.935501	-61.209700	327.413979	876.934773	-387.963963	374.615916	806.337249	-383.559315	410.203726	816.993963	-373.868225	380.340403	716.175036	-377.966479	399.701152	623.271940	-362.914862	398.333404	603.166684	-268.446291	292.578344	273.539852	-403.247089	312.122617	274.230899	-332.085453	223.389570	245.851787	-371.976338	382.013499	173.575092	-432.356983	362.959019	531.481030	-395.638713	363.861578	444.890380	-394.784318	320.661005	367.652776	-401.395615	387.814087	438.416169	-363.110783	474.650145	174.914839	-362.576208	-64.630121	852.760625	-240.689831	21.154969	83.793102	-442.090778	21.177686	83.891322	-43.866477	
1002	5.0100	702.852467	1363.502436	-97.813457	722.758964	1298.414172	-441.735445	705.625229	1392.759503	-273.811900	701.630276	1255.136844	-250.336317	626.638049	1110.514883	-39.546482	723.970152	873.057467	-61.976990	566.692116	1071.005131	-512.237514	708.782376	883.024073	-444.566431	228.785467	1184.967632	-233.988490	362.521018	1126.784718	-377.006576	374.815136	1185.841762	-91.396827	392.828722	1068.376706	-341.832661	397.797966	1121.570243	-105.627725	262.393303	1225.050946	-181.049464	263.340071	1203.047119	-289.541224	335.340544	1067.681010	-21.162159	287.724593	1003.290093	-386.678710	426.801887	963.054191	-23.441129	499.410362	914.879128	-35.095954	534.569969	833.390516	-36.179487	517.917838	930.510197	-62.921211	558.178329	730.577510	-66.055555	538.563550	722.352891	-165.506940	456.879259	695.812614	-43.240378	390.052304	639.516200	-64.462219	303.898882	624.266729	-68.053469	405.018383	619.480654	-94.623219	211.926492	581.876253	-74.556070	226.315194	590.272317	-150.026802	136.287328	617.488710	-114.958551	304.207066	413.660676	-129.497622	238.899987	462.283348	-61.389455	325.397996	874.851603	-389.054255	370.581707	802.872084	-384.638512	406.317179	812.615950	-374.414561	373.929152	712.544548	-379.515377	390.658866	619.551188	-363.896123	388.915102	599.272207	-269.097743	285.620673	269.663790	-403.032665	305.726334	270.211751	-332.430088	216.565953	244.005038	-371.782864	373.402277	167.849397	-432.196195	353.820475	528.161649	-396.393147	355.526574	441.702558	-395.624504	312.892051	363.928611	-401.796442	379.666084	435.361489	-364.066139	466.033384	166.829134	-362.398143	-64.740061	852.782206	-240.701549	21.145889	83.794552	-442.094485	21.167868	83.905474	-43.880939	
1003	5.0150	700.814414	1364.302708	-95.905597	725.403193	1299.850082	-440.157107	705.571536	1394.034129	-271.796285	702.163115	1256.304360	-248.853534	622.873812	1110.418007	-39.975246	723.386543	873.835701	-62.778429	570.807361	1071.944092	-512.352034	710.220312	880.241639	-443.477735	229.127529	1183.954560	-239.916376	365.680488	1123.750827	-378.678103	373.561404	1188.426844	-94.443403	396.842298	1065.755165	-340.911187	397.443852	1123.929810	-107.005495	261.952256	1224.977032	-186.943924	265.088191	1201.135977	-294.904430	334.406273	1071.575302	-23.867467	289.719710	1001.401679	-390.197691	428.341664	968.899754	-25.226381	501.762858	921.807160	-36.565907	538.672324	841.121804	-36.646988	520.296299	937.986185	-64.314590	564.430308	738.846653	-65.755489	545.546911	729.734095	-165.799124	463.783947	703.082887	-43.433446	397.236189	646.426602	-64.574284	311.211372	630.635493	-68.143151	412.473090	626.235745	-94.470290	219.426751	586.922705	-74.836194	233.690611	595.705092	-150.151383	143.210611	621.508027	-115.029307	314.414770	420.537649	-129.700090	248.784781	468.361492	-61.239658	323.432852	872.873391	-390.464812	366.797168	799.832906	-386.045838	402.174316	808.400267	-374.689713	367.635156	709.256665	-381.169915	381.586166	616.453877	-365.259753	379.974409	595.835681	-270.029689	278.533914	266.398165	-403.117573	299.177796	266.858739	-333.071794	209.616230	242.854714	-371.907124	364.432536	162.661597	-432.087671	344.561118	525.497144	-397.302406	347.038108	439.126141	-396.597855	305.031354	360.900255	-402.292699	371.564990	432.952175	-365.298683	457.030174	159.416095	-362.341211	-64.610567	852.653005	-240.837814	21.136361	83.778825	-442.120372	21.163093	83.908564	-43.891324	
1004	5.0200	698.859250	1364.993237	-93.603224	728.050593	1301.616151	-438.429302	705.535424	1395.306480	-269.534184	702.763441	1257.443571	-247.306793	618.973281	1110.177462	-40.400869	723.132168	875.305744	-63.591069	574.578930	1073.062261	-512.180378	710.509606	878.474705	-441.431587	229.640276	1182.860617	-245.758916	368.904177	1120.685342	-380.283473	372.391288	1190.884708	-97.612266	398.850587	1064.143602	-341.471025	396.856781	1126.179080	-108.245449	261.677861	1224.635253	-192.858839	266.900520	1199.219546	-300.342313	333.533707	1075.365985	-26.446821	292.015040	998.933569	-391.989243	429.633461	974.531564	-27.015299	503.998207	928.753874	-37.920867	542.630731	848.975851	-37.191493	522.368869	945.088277	-65.621151	570.759127	746.711461	-65.501344	552.381933	737.033157	-166.170308	470.549331	710.584983	-43.733931	404.487008	653.119972	-64.569419	318.598258	636.632701	-68.276669	420.076066	632.858269	-94.204290	227.203055	591.340652	-75.015604	241.420926	600.338876	-150.294368	150.350218	624.898197	-115.098519	324.959722	426.707536	-129.899758	258.337947	473.530936	-61.502530	321.776438	871.381982	-392.136022	363.221012	797.271629	-387.511376	398.392410	804.636317	-375.805092	361.370118	706.503697	-383.021070	372.700031	613.774476	-366.932134	371.494192	593.061874	-271.159677	271.491863	263.849715	-403.252989	292.677115	264.289359	-333.769061	202.536544	242.280629	-371.781752	355.253780	158.181631	-431.954447	335.358250	523.338981	-398.411911	338.505770	437.005652	-397.756573	297.016196	358.470632	-402.855201	363.522950	431.040722	-366.856971	447.673483	152.572796	-362.139706	-64.650279	852.620900	-240.781549	21.128369	83.773691	-442.134348	21.145575	83.918822	-43.889273	
